<svg xmlns="http://www.w3.org/2000/svg" xmlns:xlink="http://www.w3.org/1999/xlink" xmlns:lucid="lucid" width="960" height="240"><g transform="translate(-120 -480)" lucid:page-tab-id="P.AcHMUeoK.F"><path d="M140 500h920v200c-153.64-33.4-249.32-33.4-307.28-33.4-92 0-214.36 33.4-306.36 33.4-57.04 0-153.64 0-306.36-33.4z" stroke="#000" stroke-opacity="0" stroke-width="2" fill="url(#a)"/><use xlink:href="#b" transform="matrix(1,0,0,1,145,505) translate(385.35709876543217 89.20555555555553)"/><defs><linearGradient gradientUnits="userSpaceOnUse" id="a" x1="140" y1="700" x2="140" y2="500"><stop offset="0%" stop-color="#ffb463"/><stop offset="50.14%" stop-color="#ef8d22"/><stop offset="100%" stop-color="#c26b0e"/></linearGradient><path fill="#fff" d="M198-261c85 0 136 45 136 128 0 61-22 111-78 115-29 2-39-18-37-44-12 23-32 44-66 44-41 0-58-28-58-68 0-60 30-105 88-108 29-1 43 15 54 32l7-28h28c-9 45-23 84-27 134-1 11 6 17 14 16 39-4 51-48 51-92 0-69-42-107-112-107-93 0-145 59-145 153C53-15 94 26 168 27c43 0 78-13 106-28l9 19c-30 18-67 32-115 32C79 50 28-1 28-86c0-107 62-175 170-175zM158-41c46 0 70-43 70-90 0-26-17-40-43-40-44 0-59 41-61 85-1 26 9 45 34 45" id="c"/><path fill="#fff" d="M101-234c-31-9-42 10-38 44h38v23H63V0H32v-167H5v-23h27c-7-52 17-82 69-68v24" id="d"/><path fill="#fff" d="M24-231v-30h32v30H24zM24 0v-190h32V0H24" id="e"/><path fill="#fff" d="M24 0v-261h32V0H24" id="f"/><path fill="#fff" d="M135-143c-3-34-86-38-87 0 15 53 115 12 119 90S17 21 10-45l28-5c4 36 97 45 98 0-10-56-113-15-118-90-4-57 82-63 122-42 12 7 21 19 24 35" id="g"/><g id="b"><use transform="matrix(0.17345679012345672,0,0,0.17345679012345672,0,0)" xlink:href="#c"/><use transform="matrix(0.17345679012345672,0,0,0.17345679012345672,63.3117283950617,0)" xlink:href="#d"/><use transform="matrix(0.17345679012345672,0,0,0.17345679012345672,80.65740740740736,0)" xlink:href="#e"/><use transform="matrix(0.17345679012345672,0,0,0.17345679012345672,94.36049382716044,0)" xlink:href="#f"/><use transform="matrix(0.17345679012345672,0,0,0.17345679012345672,108.06358024691352,0)" xlink:href="#g"/></g></defs></g></svg>